# xmcd CD database file
#
# Track frame offsets:
#	150
#	13149
#	24236
#	34791
#	47387
#	63115
#	78146
#	93340
#	110961
#	124620
#	136742
#	149016
#	160936
#	175127
#
# Disc length: 2545 seconds
#
# Revision: 0
# Processed by: cddbd v1.5.2PL0 Copyright (c) Steve Scherf et al.
# Submitted via: CDex 1.70beta2
#
DISCID=ae09ef0e
DTITLE=Mel Tillis - The Father's Son
DYEAR=2005
DGENRE=Country
TTITLE0=The Father's Son
TTITLE1=Church In The Wildwood
TTITLE2=Standing On The Promise
TTITLE3=I'll Fly Away
TTITLE4=Family Bible
TTITLE5=What A Friend We Have In Jesus
TTITLE6=Life's Railway To Heaven
TTITLE7=The Old Rugged Cross
TTITLE8=Mansion Over The Hilltop
TTITLE9=I Saw The Light
TTITLE10=Softly And Tenderly
TTITLE11=I Wouldn't Take Nothing For My Journey Now
TTITLE12=A Satisfied Mind
TTITLE13=Old Time Religion
EXTD=YEAR: 2005
EXTT0=
EXTT1=
EXTT2=
EXTT3=
EXTT4=
EXTT5=
EXTT6=
EXTT7=
EXTT8=
EXTT9=
EXTT10=
EXTT11=
EXTT12=
EXTT13=
PLAYORDER=
